<?xml version="1.0" encoding="UTF-8"?>
<svg width="100px" height="100px" viewBox="0 0 21 21" version="1.1" xmlns="http://www.w3.org/2000/svg" xmlns:xlink="http://www.w3.org/1999/xlink">

    <g id="Page-1" stroke="none" stroke-width="1" fill="none" fill-rule="evenodd">
        <g id="全屏复制" fill="#FFFFFF" fill-rule="nonzero">
            <path d="M5.15463919,5.15463919 L0.96649486,5.15463919 C0.621199505,5.15463918 0.302133438,5.33885206 0.129485759,5.63788661 C-0.0431619197,5.93692116 -0.0431619197,6.30534691 0.129485759,6.60438146 C0.302133438,6.90341601 0.621199505,7.08762889 0.96649486,7.08762888 L6.12113404,7.08762888 C6.6549144,7.08762888 7.08762888,6.6549144 7.08762888,6.12113404 L7.08762888,0.96649486 C7.08762889,0.621199505 6.90341601,0.302133438 6.60438146,0.129485759 C6.30534691,-0.0431619197 5.93692116,-0.0431619197 5.63788661,0.129485759 C5.33885206,0.302133438 5.15463918,0.621199505 5.15463919,0.96649486 L5.15463919,5.15463919 Z M14.8195876,5.15463918 L14.8195876,0.966494845 C14.8195876,0.432714481 14.3868731,0 13.8530928,0 C13.3193124,0 12.8865979,0.432714481 12.8865979,0.966494845 L12.8865979,6.12113402 C12.8865979,6.65491438 13.3193124,7.08762887 13.8530928,7.08762887 L19.0077319,7.08762887 C19.3530273,7.08762887 19.6720934,6.903416 19.844741,6.60438145 C20.0173887,6.3053469 20.0173887,5.93692114 19.844741,5.63788659 C19.6720934,5.33885205 19.3530273,5.15463917 19.0077319,5.15463918 L14.8195876,5.15463918 Z M5.15463918,14.8195876 L0.966494845,14.8195876 C0.432714481,14.8195876 3.55271368e-15,14.3868731 3.55271368e-15,13.8530928 C3.55271368e-15,13.3193124 0.432714481,12.8865979 0.966494845,12.8865979 L6.12113402,12.8865979 C6.65463918,12.8865979 7.08762887,13.3195876 7.08762887,13.8530928 L7.08762887,19.0077319 C7.08762887,19.3530273 6.903416,19.6720934 6.60438145,19.844741 C6.3053469,20.0173887 5.93692114,20.0173887 5.63788659,19.844741 C5.33885205,19.6720934 5.15463917,19.3530273 5.15463918,19.0077319 L5.15463918,14.8195876 Z M14.9329897,14.9329897 L14.9329897,19.121134 C14.9329897,19.6549144 14.5002752,20.0876289 13.9664948,20.0876289 C13.4327145,20.0876289 13,19.6549144 13,19.121134 L13,13.9664948 C13,13.4327145 13.4327145,13 13.9664948,13 L19.121134,13 C19.6549144,13 20.0876289,13.4327145 20.0876289,13.9664948 C20.0876289,14.5002752 19.6549144,14.9329897 19.121134,14.9329897 L14.9329897,14.9329897 Z" id="形状"></path>
            <path d="M6.15979381,4.79381443 L1.64948454,0.283505155 C1.268673,-0.0713387377 0.675245204,-0.0608683968 0.307188403,0.307188403 C-0.0608683968,0.675245204 -0.0713387377,1.268673 0.283505155,1.64948454 L4.79381443,6.15979381 C5.17462597,6.51463771 5.76805377,6.50416737 6.13611057,6.13611057 C6.50416737,5.76805377 6.51463771,5.17462597 6.15979381,4.79381443 Z M15.1804124,6.15979381 L19.6907216,1.64948454 C20.0455655,1.268673 20.0350952,0.675245204 19.6670384,0.307188403 C19.2989816,-0.0608683968 18.7055538,-0.0713387377 18.3247423,0.283505155 L13.814433,4.79381443 C13.4595891,5.17462597 13.4700594,5.76805377 13.8381162,6.13611057 C14.206173,6.50416737 14.7996008,6.51463771 15.1804124,6.15979381 L15.1804124,6.15979381 Z M4.79381443,13.814433 C5.17462597,13.4595891 5.76805377,13.4700594 6.13611057,13.8381162 C6.50416737,14.206173 6.51463771,14.7996008 6.15979381,15.1804124 L1.64948454,19.6907216 C1.268673,20.0455655 0.675245204,20.0350952 0.307188403,19.6670384 C-0.0608683968,19.2989816 -0.0713387377,18.7055538 0.283505155,18.3247423 L4.79381443,13.814433 Z M13.9278351,15.2938144 C13.5729912,14.9130029 13.5834615,14.3195751 13.9515183,13.9515183 C14.3195751,13.5834615 14.9130029,13.5729912 15.2938144,13.9278351 L19.8041237,18.4381443 C20.1589676,18.8189559 20.1484973,19.4123837 19.7804405,19.7804405 C19.4123837,20.1484973 18.8189559,20.1589676 18.4381443,19.8041237 L13.9278351,15.2938144 Z" id="形状"></path>
        </g>
    </g>
</svg>
