<?xml version="1.0" standalone="no"?><svg class="icon" width="200px" height="200.00px" viewBox="0 0 1024 1024" version="1.1" xmlns="http://www.w3.org/2000/svg"><path fill="#666666" d="M761.856 512c0-16.896-8.704-32.256-21.504-41.472L432.128 264.704s-0.512 0-0.512-0.512l-1.024-0.512c-7.68-5.12-17.408-8.192-27.136-8.192-28.16 0-51.2 23.04-51.2 51.2v409.6c0 28.16 23.04 50.176 51.2 51.2 10.24 0.512 19.968-2.56 28.16-8.192l307.2-204.288c13.824-8.704 23.04-24.576 23.04-43.008z"  /><path fill="#666666" d="M512 1024C229.888 1024 0 794.112 0 512S229.888 0 512 0s512 229.888 512 512-229.888 512-512 512z m0-972.8c-253.952 0-460.8 206.848-460.8 460.8s206.848 460.8 460.8 460.8 460.8-206.848 460.8-460.8-206.848-460.8-460.8-460.8z"  /></svg>