<?xml version="1.0" encoding="UTF-8"?>
<svg width="20px" height="20px" viewBox="0 0 20 20" version="1.1" xmlns="http://www.w3.org/2000/svg" xmlns:xlink="http://www.w3.org/1999/xlink">
    <!-- Generator: Sketch 54.1 (76490) - https://sketchapp.com -->
    <title>全屏</title>
    <desc>Created with Sketch.</desc>
    <g id="Page-1" stroke="none" stroke-width="1" fill="none" fill-rule="evenodd">
        <g id="全屏" fill="#FFFFFF" fill-rule="nonzero">
            <path d="M1.93298969,1.93298969 L6.12113402,1.93298969 C6.46642938,1.9329897 6.78549544,1.74877682 6.95814312,1.44974227 C7.1307908,1.15070772 7.1307908,0.782281966 6.95814312,0.483247419 C6.78549544,0.184212871 6.46642938,-5.14529812e-09 6.12113402,3.55271368e-15 L0.966494845,3.55271368e-15 C0.432714481,3.4096437e-15 7.15349887e-17,0.432714481 0,0.966494845 L0,6.12113402 C-5.14530185e-09,6.46642938 0.184212871,6.78549544 0.483247419,6.95814312 C0.782281966,7.1307908 1.15070772,7.1307908 1.44974227,6.95814312 C1.74877682,6.78549544 1.9329897,6.46642938 1.93298969,6.12113402 L1.93298969,1.93298969 Z M18.0412371,1.93298969 L18.0412371,6.12113402 C18.0412371,6.65491438 18.4739516,7.08762887 19.007732,7.08762887 C19.5415123,7.08762887 19.9742268,6.65491438 19.9742268,6.12113402 L19.9742268,0.966494845 C19.9742268,0.432714481 19.5415123,7.15349887e-17 19.007732,0 L13.8530928,0 C13.5077974,-5.14530185e-09 13.1887314,0.184212871 13.0160837,0.483247419 C12.843436,0.782281966 12.843436,1.15070772 13.0160837,1.44974227 C13.1887314,1.74877682 13.5077974,1.9329897 13.8530928,1.93298969 L18.0412371,1.93298969 Z M1.93298969,18.0412371 L1.93298969,13.8530928 C1.9329897,13.5077974 1.74877682,13.1887314 1.44974227,13.0160837 C1.15070772,12.843436 0.782281966,12.843436 0.483247419,13.0160837 C0.184212871,13.1887314 -5.14529812e-09,13.5077974 3.55271368e-15,13.8530928 L3.55271368e-15,19.007732 C3.55271368e-15,19.5412371 0.432989691,19.9742268 0.966494845,19.9742268 L6.12113402,19.9742268 C6.65491438,19.9742268 7.08762887,19.5415123 7.08762887,19.007732 C7.08762887,18.4739516 6.65491438,18.0412371 6.12113402,18.0412371 L1.93298969,18.0412371 Z M18.0412371,18.0412371 L13.8530928,18.0412371 C13.3193124,18.0412371 12.8865979,18.4739516 12.8865979,19.007732 C12.8865979,19.5415123 13.3193124,19.9742268 13.8530928,19.9742268 L19.007732,19.9742268 C19.5415123,19.9742268 19.9742268,19.5415123 19.9742268,19.007732 L19.9742268,13.8530928 C19.9742268,13.3193124 19.5415123,12.8865979 19.007732,12.8865979 C18.4739516,12.8865979 18.0412371,13.3193124 18.0412371,13.8530928 L18.0412371,18.0412371 Z" id="形状"></path>
            <path d="M0.283505155,1.64948454 L4.79381443,6.15979381 C5.17462597,6.51463771 5.76805377,6.50416737 6.13611057,6.13611057 C6.50416737,5.76805377 6.51463771,5.17462597 6.15979381,4.79381443 L1.64948454,0.283505155 C1.268673,-0.0713387377 0.675245204,-0.0608683968 0.307188403,0.307188403 C-0.0608683968,0.675245204 -0.0713387377,1.268673 0.283505155,1.64948454 Z M18.3247423,0.283505155 L13.814433,4.79381443 C13.4595891,5.17462597 13.4700594,5.76805377 13.8381162,6.13611057 C14.206173,6.50416737 14.7996008,6.51463771 15.1804124,6.15979381 L19.6907216,1.64948454 C20.0455655,1.268673 20.0350952,0.675245204 19.6670384,0.307188403 C19.2989816,-0.0608683968 18.7055538,-0.0713387377 18.3247423,0.283505155 L18.3247423,0.283505155 Z M1.64948454,19.6907216 L6.15979381,15.1804124 C6.51463771,14.7996008 6.50416737,14.206173 6.13611057,13.8381162 C5.76805377,13.4700594 5.17462597,13.4595891 4.79381443,13.814433 L0.283505155,18.3247423 C-0.0713387377,18.7055538 -0.0608683968,19.2989816 0.307188403,19.6670384 C0.675245204,20.0350952 1.268673,20.0455655 1.64948454,19.6907216 L1.64948454,19.6907216 Z M19.6907216,18.3247423 L15.1804124,13.814433 C14.7996008,13.4595891 14.206173,13.4700594 13.8381162,13.8381162 C13.4700594,14.206173 13.4595891,14.7996008 13.814433,15.1804124 L18.3247423,19.6907216 C18.7055538,20.0455655 19.2989816,20.0350952 19.6670384,19.6670384 C20.0350952,19.2989816 20.0455655,18.7055538 19.6907216,18.3247423 L19.6907216,18.3247423 Z" id="形状"></path>
        </g>
    </g>
</svg>