<?xml version="1.0" encoding="UTF-8"?>
<svg width="100px" height="100px" viewBox="0 0 23 20" version="1.1" xmlns="http://www.w3.org/2000/svg" xmlns:xlink="http://www.w3.org/1999/xlink">
    <!-- Generator: Sketch 54.1 (76490) - https://sketchapp.com -->
    <title>音量</title>
    <desc>Created with Sketch.</desc>
    <g id="Page-1" stroke="none" stroke-width="1" fill="none" fill-rule="evenodd">
        <g id="音量" fill="#FFFFFF" fill-rule="nonzero">
            <path d="M18.1299055,15.8659157 C17.7229288,15.458939 17.7229288,14.9240552 18.1299055,14.5170785 C20.7345567,11.947311 20.7345567,7.90079942 18.1299055,5.33103198 C17.7229288,4.92405523 17.7229288,4.38917151 18.1299055,3.98219477 C18.5368823,3.57521802 19.0950218,3.57521802 19.5019985,3.98219477 C21.1415334,5.61010174 22.1066497,7.63335756 22.1066497,9.79614826 C22.1066497,11.958939 21.1415334,14.1217297 19.5019985,15.5984738 C19.3624637,15.7380087 19.0950218,15.8659157 18.815952,15.8659157 C18.5368823,16.1449855 18.2694404,16.0054506 18.1299055,15.8659157 L18.1299055,15.8659157 Z M15.3857195,14.3891715 C15.1066497,14.3891715 14.8392078,14.2496366 14.699673,14.1217297 C14.2926962,13.7147529 14.2926962,13.1798692 14.699673,12.7728924 C16.3508358,11.1566134 16.3508358,8.72638081 14.699673,7.09847384 C14.2926962,6.69149709 14.2926962,6.15661337 14.699673,5.74963663 C15.1066497,5.34265988 15.6647892,5.34265988 16.071766,5.74963663 C18.5368823,8.0403343 18.5368823,11.6914971 16.071766,13.9821948 C15.7926962,14.2496366 15.6531613,14.3891715 15.3857195,14.3891715 Z M10.3043241,0.47056686 C11.5368823,-0.471293605 12.5019985,0.0635901163 12.5019985,1.55196221 L12.5019985,18.4356831 C12.5019985,19.9240552 11.5368823,20.331032 10.443859,19.3775436 L5.50199855,15.331032 L2.7578125,15.331032 C1.24618459,15.331032 0.0136264535,14.1101017 0.0136264535,12.6333576 L0.0136264535,7.08684593 C0.0136264535,5.59847384 1.24618459,4.38917151 2.7578125,4.38917151 L5.36246366,4.38917151 L10.3043241,0.47056686 Z" id="形状"></path>
        </g>
    </g>
</svg>
